<?xml version="1.0" encoding="iso-8859-1"?>
<!-- Generator: Adobe Illustrator 19.0.0, SVG Export Plug-In . SVG Version: 6.00 Build 0)  -->
<svg version="1.1" id="Capa_1" xmlns="http://www.w3.org/2000/svg" xmlns:xlink="http://www.w3.org/1999/xlink" x="0px" y="0px"
	 viewBox="0 0 512.001 512.001" style="enable-background:new 0 0 512.001 512.001;" xml:space="preserve">
<g>
	<g>
		<g>
			<path d="M508.802,313.945l-43.619-43.62c-3.826-3.826-5.933-8.913-5.933-14.324c0-5.411,2.107-10.498,5.933-14.324l43.619-43.619
				c2.751-2.751,3.835-6.795,2.828-10.553c-1.007-3.758-3.967-6.718-7.725-7.725l-59.584-15.965
				c-5.227-1.401-9.595-4.753-12.301-9.439c-2.706-4.686-3.424-10.145-2.023-15.372l15.966-59.585
				c1.007-3.758-0.077-7.801-2.828-10.553c-2.751-2.75-6.796-3.833-10.553-2.828l-59.585,15.966
				c-5.226,1.401-10.685,0.682-15.371-2.024c-4.686-2.706-8.038-7.074-9.438-12.301L332.221,8.096
				c-1.007-3.758-3.967-6.719-7.725-7.725c-3.76-1.009-7.802,0.076-10.553,2.828l-43.619,43.619
				c-3.826,3.826-8.913,5.933-14.324,5.933c-5.411,0-10.498-2.107-14.324-5.933l-43.619-43.62c-2.751-2.75-6.793-3.835-10.553-2.828
				c-3.758,1.007-6.718,3.967-7.725,7.725L163.814,67.68c-1.401,5.226-4.753,9.595-9.439,12.301
				c-4.686,2.705-10.145,3.426-15.372,2.023L79.419,66.039c-3.757-1.006-7.802,0.077-10.553,2.828
				c-2.751,2.751-3.834,6.795-2.828,10.553l15.966,59.585c1.401,5.226,0.682,10.686-2.023,15.372
				c-2.706,4.686-7.074,8.038-12.301,9.438L8.096,179.779c-3.758,1.007-6.719,3.967-7.725,7.725
				c-1.007,3.758,0.076,7.802,2.828,10.553l43.619,43.619c3.826,3.826,5.933,8.913,5.933,14.324s-2.107,10.498-5.933,14.324
				l-43.62,43.619c-2.751,2.751-3.835,6.795-2.828,10.553s3.967,6.718,7.725,7.725l59.584,15.965
				c5.226,1.401,9.595,4.753,12.301,9.439c2.706,4.686,3.424,10.145,2.023,15.372l-15.966,59.585
				c-1.007,3.758,0.077,7.801,2.828,10.553c2.751,2.751,6.795,3.833,10.553,2.828l59.585-15.966
				c5.227-1.4,10.685-0.682,15.371,2.024c4.686,2.706,8.038,7.074,9.438,12.3l15.966,59.585c1.007,3.758,3.967,6.719,7.725,7.725
				c3.76,1.006,7.802-0.076,10.553-2.828l43.619-43.619c3.826-3.826,8.913-5.933,14.324-5.933c5.411,0,10.498,2.107,14.324,5.933
				l43.619,43.619c2.072,2.072,4.876,3.198,7.74,3.198c0.939,0,1.885-0.121,2.813-0.37c3.758-1.007,6.718-3.967,7.725-7.725
				l15.965-59.584c1.401-5.227,4.753-9.595,9.439-12.301c4.686-2.705,10.145-3.426,15.372-2.023l59.585,15.966
				c3.757,1.006,7.802-0.077,10.553-2.828c2.751-2.751,3.834-6.795,2.828-10.553l-15.966-59.585
				c-1.4-5.226-0.682-10.685,2.024-15.371c2.706-4.686,7.074-8.038,12.3-9.438l59.585-15.966c3.758-1.007,6.719-3.967,7.725-7.725
				C512.637,320.74,511.554,316.696,508.802,313.945z M440.439,333.706c-9.094,2.437-16.695,8.27-21.403,16.423
				c-4.708,8.154-5.958,17.654-3.522,26.747l14.143,52.781l-52.781-14.143c-9.094-2.437-18.593-1.186-26.749,3.521
				c-8.153,4.708-13.986,12.309-16.423,21.404l-14.142,52.78l-38.638-38.638c-6.658-6.658-15.51-10.325-24.925-10.325
				c-9.415,0-18.268,3.667-24.925,10.325l-38.638,38.638l-14.143-52.781c-2.437-9.094-8.269-16.695-16.423-21.403
				c-5.432-3.136-11.46-4.738-17.567-4.738c-3.062,0-6.144,0.403-9.18,1.216l-52.781,14.143l14.142-52.781
				c2.437-9.094,1.187-18.594-3.521-26.748c-4.708-8.153-12.309-13.986-21.404-16.423l-52.781-14.142l38.638-38.638
				c6.658-6.658,10.325-15.51,10.325-24.925s-3.666-18.268-10.325-24.925l-38.638-38.638l52.781-14.142
				c9.094-2.437,16.696-8.27,21.404-16.424c4.708-8.154,5.958-17.654,3.522-26.748L82.342,82.343l52.781,14.142
				c9.094,2.438,18.593,1.187,26.748-3.521c8.153-4.708,13.986-12.309,16.423-21.404l14.142-52.781l38.638,38.638
				c6.658,6.658,15.51,10.325,24.925,10.325c9.415,0,18.268-3.666,24.925-10.325l38.638-38.638l14.142,52.781
				c2.437,9.094,8.27,16.696,16.424,21.404c8.154,4.709,17.654,5.958,26.747,3.522l52.781-14.143l-14.142,52.781
				c-2.437,9.094-1.187,18.594,3.521,26.748c4.708,8.153,12.309,13.986,21.404,16.423l52.78,14.142l-38.638,38.638
				c-6.658,6.658-10.325,15.51-10.325,24.925c0,9.415,3.666,18.268,10.325,24.925l38.638,38.638L440.439,333.706z"/>
			<path d="M314.899,137.408c3.708,1.838,8.206,0.322,10.045-3.387c1.838-3.709,0.322-8.207-3.388-10.045
				c-56.553-28.027-124.553-16.853-169.211,27.806c-55.085,55.084-57.624,143.706-5.783,201.755
				c1.481,1.658,3.532,2.503,5.593,2.503c1.777,0,3.561-0.628,4.99-1.905c3.088-2.757,3.356-7.496,0.598-10.584
				c-46.549-52.124-44.264-131.703,5.202-181.169C203.052,122.277,264.117,112.241,314.899,137.408z"/>
			<path d="M354.831,156.714c-3.071,2.776-3.311,7.516-0.535,10.587c47.135,52.159,45.081,131.995-4.677,181.753
				c-25.428,25.428-59.117,38.76-93.308,38.758c-20.302-0.001-40.786-4.704-59.807-14.367c-3.69-1.874-8.203-0.404-10.078,3.288
				c-1.875,3.691-0.403,8.203,3.288,10.078c21.189,10.765,43.991,16.002,66.606,16.001c38.067-0.002,75.591-14.847,103.9-43.157
				c55.41-55.41,57.694-144.316,5.199-202.406C362.643,154.178,357.904,153.939,354.831,156.714z"/>
		</g>
	</g>
</g>
<g>
</g>
<g>
</g>
<g>
</g>
<g>
</g>
<g>
</g>
<g>
</g>
<g>
</g>
<g>
</g>
<g>
</g>
<g>
</g>
<g>
</g>
<g>
</g>
<g>
</g>
<g>
</g>
<g>
</g>
</svg>
